# xmcd
#
# Track frame offsets:
#	150
#	15565
#	27757
#	41335
#	57892
#	75487
#	91595
#	114425
#	124715
#	135817
#
# Disc length: 2064 seconds
#
# Revision: 2
# Processed by: cddbd v1.5.1PL0 Copyright (c) Steve Scherf et al.
# Submitted via: audiograbber 1.83.01
#
DISCID=62080e0a
DTITLE=Various Artist - Ultimate Christmas Hits Vol 1
DYEAR=2003
DGENRE=Holidays
TTITLE0=LeAnn Rimes - Put A Little Holiday In Your Heart
TTITLE1=Steve Holy - Jingle Bell Rock
TTITLE2=Joe Dee Messina - Winter Wonderland
TTITLE3=Lee Greenwood - The Greatest Christmas
TTITLE4=Seral - Joy
TTITLE5=Wynonna - Let's Make A Baby King
TTITLE6=Sawyer Brown - Angels We Have Heard On High
TTITLE7=Bellamy Brothers - Rockin' Around The Christmas Tree
TTITLE8=Jeff Carson - Santa Got Lost In Texas
TTITLE9=Ray Stevens - King Of Christmas
EXTD=
EXTT0=
EXTT1=
EXTT2=
EXTT3=
EXTT4=
EXTT5=
EXTT6=
EXTT7=
EXTT8=
EXTT9=
PLAYORDER=
